<svg xmlns="http://www.w3.org/2000/svg" width="189.97" height="47" viewBox="0 0 189.97 47"><g id="SOLOTORI_logo" transform="translate(94.985 23.5)"><g id="グループ_2042" data-name="グループ 2042" transform="translate(-94.985 -23.5)"><g id="グループ_2036" data-name="グループ 2036" transform="translate(50.974 34.114)"><g id="グループ_2035" data-name="グループ 2035"><path id="パス_1772" data-name="パス 1772" d="M104.221 78.257c-.937 0-1.26.021-1.322.021-.1 0-.115-.01-.115-.1v-1.01c0-.094.01-.1.115-.1.062 0 .385.021 1.322.021h6.279c.938 0 1.26-.021 1.323-.021.1 0 .115.01.115.1v1.01c0 .094-.01.1-.115.1-.062 0-.385-.021-1.323-.021z" transform="translate(-102.784 -72.957)"/><path id="パス_1773" data-name="パス 1773" d="M135.48 78.267c-.083.178-.115.25-.187.25-.052 0-.114-.042-.239-.125a8.3 8.3 0 01-3.676-4.977 7.767 7.767 0 01-3.77 4.988.666.666 0 01-.24.1c-.073 0-.115-.073-.208-.249a2.875 2.875 0 00-.6-.7 7.087 7.087 0 004.05-6.789c-.01-.458-.021-.9-.073-1.354.407.021.907.073 1.281.125.135.021.2.083.2.167a.449.449 0 01-.1.261 1.709 1.709 0 00-.083.687c-.01.125-.01.25-.01.375a7.984 7.984 0 004.249 6.424 2.829 2.829 0 00-.594.817z" transform="translate(-114.767 -69.104)"/><path id="パス_1774" data-name="パス 1774" d="M157.919 72.535a11.583 11.583 0 00.26 1.427 7.537 7.537 0 00.73-.635 3.393 3.393 0 00.374-.458 4.154 4.154 0 01.667.594.236.236 0 01.083.177c0 .073-.052.125-.146.156a1.239 1.239 0 00-.385.271 10.739 10.739 0 01-1.01.822 5.581 5.581 0 001.7 2.26 2.224 2.224 0 00-.511.8c-.062.136-.093.2-.145.2s-.094-.042-.177-.125a8.016 8.016 0 01-2.239-4.863l-.417.281v3.488c0 .844.02 1.25.02 1.3 0 .1-.01.115-.114.115h-.864c-.1 0-.115-.01-.115-.115 0-.062.021-.458.021-1.3v-2.864l-.51.25a.636.636 0 01-.239.072c-.083 0-.115-.072-.178-.27a1.811 1.811 0 00-.322-.542v.115a13.105 13.105 0 01-.292 3.665 1.026 1.026 0 01-1.083.812c-.156 0-.26 0-.469-.011-.167-.01-.187-.031-.218-.292a2.636 2.636 0 00-.24-.792 3.314 3.314 0 00.708.073c.3 0 .365-.115.458-.594a20.517 20.517 0 00.156-3.145h-.926a9.785 9.785 0 01-1.156 4.581c-.073.125-.135.178-.187.178s-.114-.053-.177-.167a2.205 2.205 0 00-.583-.667c1.062-1.489 1.156-3.311 1.187-6.008-.594.01-.812.021-.864.021-.1 0-.115-.01-.115-.125v-.75c0-.1.01-.115.115-.115.062 0 .333.021 1.156.021h.365v-.531a4.519 4.519 0 00-.073-1.01c.385.01.708.021 1.093.062.1.01.177.042.177.1a.444.444 0 01-.062.2 1.688 1.688 0 00-.063.646v.531h.125c.833 0 1.1-.021 1.166-.021.1 0 .115.01.115.115v.75c0 .115-.01.125-.115.125-.062 0-.333-.021-1.166-.021h-.864c-.011.4-.011.781-.031 1.135h1.145c.448 0 .562-.021.624-.021.1 0 .125.021.125.125-.02.281-.02.562-.031.926a9.518 9.518 0 003.093-1.875 3.021 3.021 0 00.447-.541H156.1a6.678 6.678 0 01-.8 1.2c-.1.125-.166.187-.229.187s-.125-.062-.25-.178a2.446 2.446 0 00-.583-.406 5.426 5.426 0 001.489-2.437 2.756 2.756 0 00.125-.656c.365.052.667.115.969.177.114.031.187.083.187.146a.235.235 0 01-.083.156.833.833 0 00-.2.375l-.177.49h2.228c.833 0 1.114-.021 1.166-.021.1 0 .114.01.114.114v.76c0 .1-.01.115-.114.115-.053 0-.333-.021-1.166-.021h-.781a6.69 6.69 0 01.76.531.212.212 0 01.094.177c0 .042-.052.1-.156.136a1.782 1.782 0 00-.479.354z" transform="translate(-126.781 -68.787)"/><path id="パス_1775" data-name="パス 1775" d="M180.611 72.589a13.057 13.057 0 01-1.3 4.488 1.979 1.979 0 01-1.771 1.2c-.916 0-1.843-.979-1.843-2.676a3.835 3.835 0 011.177-2.707 4.556 4.556 0 013.384-1.333c2.5 0 3.967 1.541 3.967 3.613 0 1.937-1.094 3.155-3.207 3.79-.219.062-.313.021-.448-.187a2.209 2.209 0 00-.729-.656c1.76-.417 3.145-1.146 3.145-3.114a2.365 2.365 0 00-2.332-2.416zm-2.989 1.01a3 3 0 00-.811 1.927c0 .958.385 1.489.708 1.489.27 0 .5-.135.781-.635a11.9 11.9 0 001.1-3.728 3.141 3.141 0 00-1.778.948z" transform="translate(-139.536 -70.184)"/><path id="パス_1776" data-name="パス 1776" d="M205.693 73.069a1.915 1.915 0 00.864-.094.309.309 0 01.145-.052.258.258 0 01.178.083 4.821 4.821 0 01.749.833.436.436 0 01.083.229.258.258 0 01-.135.218 3.147 3.147 0 00-.5.4 37.217 37.217 0 01-2.8 2.791 11.09 11.09 0 01.916 1.041.236.236 0 01.073.156.252.252 0 01-.094.167 7.654 7.654 0 01-.677.614.271.271 0 01-.135.053c-.042 0-.083-.032-.125-.094a15.627 15.627 0 00-3.343-3.238c.208-.2.562-.531.75-.7a.22.22 0 01.115-.052.31.31 0 01.145.073 16.354 16.354 0 011.479 1.166 23.24 23.24 0 002.405-2.457l-4.384.021c-.6 0-1.375.021-1.937.073-.135 0-.167-.062-.187-.187a9.715 9.715 0 01-.124-1.113c.708.073 1.551.073 2.27.073z" transform="translate(-151.361 -70.872)"/><path id="パス_1777" data-name="パス 1777" d="M223.434 75.241a.186.186 0 01.27.072 5.577 5.577 0 01.9 1.541.733.733 0 01.042.156c0 .062-.042.094-.125.146a4.291 4.291 0 01-.666.322c-.146.053-.208 0-.261-.146a6.149 6.149 0 00-.978-1.676c.349-.197.599-.311.818-.415zm5.716.135c.083.062.135.115.135.178s-.031.114-.115.187a1.436 1.436 0 00-.312.531 12.7 12.7 0 01-1.573 2.77 8.337 8.337 0 01-2.144 2.01.451.451 0 01-.25.114.24.24 0 01-.167-.072 2.344 2.344 0 00-.885-.437 9.06 9.06 0 002.5-2.166 10.775 10.775 0 001.405-2.51 3.729 3.729 0 00.24-1.1 4.99 4.99 0 011.166.495zm-3.613-.635a.183.183 0 01.271.083 6.018 6.018 0 01.8 1.52c.052.156.032.208-.1.281a4.283 4.283 0 01-.719.323c-.115.042-.156-.01-.208-.156a7.059 7.059 0 00-.875-1.666c.414-.198.654-.313.831-.385z" transform="translate(-163.184 -71.773)"/><path id="パス_1778" data-name="パス 1778" d="M246.287 73.367c0-.333-.01-.75-.021-1.052a5.922 5.922 0 00-.052-.479 23.5 23.5 0 01-2.468.333c-.156.021-.219-.114-.26-.229a2.821 2.821 0 00-.531-.719 19.681 19.681 0 003.093-.385 12.964 12.964 0 001.718-.447 2.961 2.961 0 00.9-.469 5.086 5.086 0 01.854.729.4.4 0 01.135.292c0 .115-.1.135-.27.146-.219.031-.438.125-.657.177-.635.177-1.27.333-1.884.458a3.088 3.088 0 01.676.135.154.154 0 01.135.146.516.516 0 01-.062.177.988.988 0 00-.073.354c-.01.229-.01.468-.01.822h1.29c.656 0 1.541-.052 2.01-.072.1 0 .1.052.115.166a7.522 7.522 0 010 .833c-.01.146-.01.187-.135.187a60.13 60.13 0 00-2.02-.031h-1.281a5.657 5.657 0 01-.52 2.093 4.958 4.958 0 01-1.656 1.947.326.326 0 01-.177.073.4.4 0 01-.188-.062 4.255 4.255 0 00-1.1-.4 4.62 4.62 0 001.947-1.927 4.3 4.3 0 00.458-1.728H244.4c-.375 0-1.146 0-1.656.042-.135.01-.167-.073-.2-.24a4.569 4.569 0 01-.1-.948c.739.062 1.51.073 2.02.073z" transform="translate(-173.177 -69.358)"/><path id="パス_1779" data-name="パス 1779" d="M266.075 71.7a.194.194 0 01.146-.083.277.277 0 01.135.052 10.893 10.893 0 011.989 1.478c.063.062.094.1.094.146a.227.227 0 01-.063.136c-.156.208-.5.625-.645.781-.053.053-.083.083-.125.083s-.083-.031-.136-.083a11.018 11.018 0 00-2.124-1.7c.229-.275.531-.597.729-.81zm.906 5.488a15.438 15.438 0 003-1.937 15.653 15.653 0 002.853-2.832 4.673 4.673 0 00.292 1.219.505.505 0 01.052.2c0 .094-.052.178-.167.312a16.986 16.986 0 01-2.395 2.207 22.372 22.372 0 01-3.146 2.043 3.613 3.613 0 00-.7.479.289.289 0 01-.188.1.269.269 0 01-.177-.114 7.214 7.214 0 01-.833-1.156 6.274 6.274 0 001.409-.517z" transform="translate(-184.725 -70.216)"/><path id="パス_1780" data-name="パス 1780" d="M292.345 71.053a.965.965 0 00.521-.125.209.209 0 01.135-.042.3.3 0 01.167.062 4.8 4.8 0 01.708.562.337.337 0 01.135.24.3.3 0 01-.125.218 1.26 1.26 0 00-.344.448 14.357 14.357 0 01-2.062 3.217 13.229 13.229 0 01-3.166 2.593.282.282 0 01-.167.052.367.367 0 01-.239-.114 2.738 2.738 0 00-.989-.479 12 12 0 003.467-2.656 10.6 10.6 0 001.926-2.957l-2.519.073a14.55 14.55 0 01-1.968 2.135.324.324 0 01-.219.115.25.25 0 01-.156-.062 2.825 2.825 0 00-1-.448 12.363 12.363 0 002.8-3.093 4.441 4.441 0 00.614-1.406 5.13 5.13 0 011.219.552.215.215 0 01.1.177.207.207 0 01-.114.177 1.131 1.131 0 00-.261.281c-.114.177-.218.333-.343.521zm1.291-1.405c.052-.042.093-.032.156.021a4.788 4.788 0 01.989 1.114.105.105 0 01-.031.167l-.438.323a.109.109 0 01-.177-.031 5.155 5.155 0 00-1.051-1.208zm.926-.677c.063-.041.094-.031.156.021a4.343 4.343 0 01.989 1.073.12.12 0 01-.031.187l-.417.322a.106.106 0 01-.177-.031 4.949 4.949 0 00-1.042-1.2z" transform="translate(-195.364 -68.867)"/><path id="パス_1781" data-name="パス 1781" d="M316.033 72.169c.51 0 1.094-.011 1.572-.032.125-.01.135.053.146.167a5.565 5.565 0 010 .823c-.011.135-.032.177-.178.167-.354 0-.989-.011-1.5-.011h-.427a6.186 6.186 0 01-.8 3.207 4.9 4.9 0 01-2.457 1.937.878.878 0 01-.292.094c-.062 0-.115-.032-.2-.115a2.41 2.41 0 00-.864-.625 4.523 4.523 0 002.811-1.842 5.039 5.039 0 00.614-2.656h-2.218v.375c0 .614 0 1.177.031 1.728.01.115-.062.136-.177.146a6.419 6.419 0 01-.9 0c-.136-.01-.2-.031-.187-.146a28.16 28.16 0 00.052-1.708v-.4h-.312c-.562 0-1.4.032-1.718.052-.083 0-.115-.062-.125-.2a9.214 9.214 0 01-.073-1.01c.437.031 1.114.052 1.916.052h.312v-.76a7.208 7.208 0 00-.125-1.531 10.227 10.227 0 011.271.167c.114.021.156.073.156.146a.7.7 0 01-.062.219 2.606 2.606 0 00-.073 1v.76h2.239l.01-1.02a6.919 6.919 0 00-.093-1.426 9.789 9.789 0 011.218.177c.146.032.187.083.187.167a.567.567 0 01-.041.187 2.854 2.854 0 00-.083.916v.989z" transform="translate(-206.648 -69.263)"/><path id="パス_1782" data-name="パス 1782" d="M336.5 76.03c0 .719.011 1.333.032 2.166.01.135-.042.177-.157.177a8.679 8.679 0 01-1.041 0c-.115 0-.156-.042-.145-.167.01-.75.042-1.426.042-2.135v-2.426a18.012 18.012 0 01-2.864 2 .293.293 0 01-.374-.062 3.922 3.922 0 00-.9-.614 17.694 17.694 0 005.5-4.311 3.008 3.008 0 00.656-1.073 9.325 9.325 0 011.156.729.184.184 0 01.083.157.3.3 0 01-.146.229 3.431 3.431 0 00-.625.573 16.289 16.289 0 01-1.219 1.312z" transform="translate(-217.869 -69.189)"/><path id="パス_1783" data-name="パス 1783" d="M356.612 72.615a14.7 14.7 0 013.311 1.416c.115.062.166.135.115.271a6.048 6.048 0 01-.448.906c-.042.072-.083.114-.135.114a.159.159 0 01-.115-.052 11.513 11.513 0 00-2.739-1.333v2.3c0 .677.021 1.291.042 2.041.011.125-.042.157-.187.157a6.873 6.873 0 01-.926 0c-.146 0-.2-.032-.2-.157.031-.771.042-1.385.042-2.051V71.1a7.983 7.983 0 00-.1-1.541 7.644 7.644 0 011.3.167c.145.031.2.093.2.177a.545.545 0 01-.083.24 2.727 2.727 0 00-.072.978z" transform="translate(-230.052 -69.179)"/></g></g><g id="グループ_2039" data-name="グループ 2039"><path id="パス_1784" data-name="パス 1784" d="M15.933 0A15.921 15.921 0 000 15.933C0 27.882 15.933 47 15.933 47s15.932-19.118 15.932-31.067A15.921 15.921 0 0015.933 0z" fill="#eb0303"/><g id="グループ_2038" data-name="グループ 2038" transform="translate(8.512 13.657)"><path id="パス_1785" data-name="パス 1785" d="M20.415 28.278a22.842 22.842 0 012.654 5.13c-.691.318-2.307 1.1-3.341 1.7a23.072 23.072 0 00-2.564-5.246z" transform="translate(-17.163 -27.911)" fill="#fff"/><g id="グループ_2037" data-name="グループ 2037" transform="translate(2.948)"><path id="パス_1786" data-name="パス 1786" d="M25.733 42.967l-.082-.123a11 11 0 00-2.323-2.617l-.22-.18.266-.1c5.726-2.208 8.232-5.859 8.377-12.208v-.2l3.664.767c.29.064.52.115.52.414 0 .23-.213.384-.454.451-1.126 7.894-4.662 11.2-9.621 13.731z" transform="translate(-23.108 -27.538)" fill="#fff"/></g></g></g><g id="グループ_2041" data-name="グループ 2041" transform="translate(41.984 6.723)"><g id="グループ_2040" data-name="グループ 2040" fill="#131313"><path id="パス_1787" data-name="パス 1787" d="M95.448 18.671a2.979 2.979 0 00-1.379-.951 4.955 4.955 0 00-1.647-.308 4.35 4.35 0 00-.937.107 3.618 3.618 0 00-.911.335 1.985 1.985 0 00-.7.6 1.528 1.528 0 00-.268.911 1.509 1.509 0 00.643 1.312 6.071 6.071 0 001.62.777q.977.321 2.1.643a8.686 8.686 0 012.1.911A4.993 4.993 0 0197.7 24.59a4.817 4.817 0 01.642 2.651A6.094 6.094 0 0197.751 30a5.587 5.587 0 01-1.593 1.955 6.761 6.761 0 01-2.329 1.152 10.687 10.687 0 01-6.227-.187 8.58 8.58 0 01-2.946-1.82l2.972-3.267a4.33 4.33 0 001.62 1.326 4.555 4.555 0 003.052.341 3.361 3.361 0 00.937-.362 2.021 2.021 0 00.67-.616 1.535 1.535 0 00.255-.884 1.605 1.605 0 00-.657-1.352 6.047 6.047 0 00-1.647-.844q-.991-.347-2.142-.7a9.57 9.57 0 01-2.143-.937 5.158 5.158 0 01-1.647-1.553 4.439 4.439 0 01-.656-2.544 5.69 5.69 0 01.6-2.678 5.812 5.812 0 011.606-1.928 6.99 6.99 0 012.324-1.158 9.5 9.5 0 012.7-.388 10.658 10.658 0 013.107.455 7.182 7.182 0 012.7 1.526z" transform="translate(-84.656 -13.556)"/><path id="パス_1788" data-name="パス 1788" d="M120.241 23.518a10.7 10.7 0 01.759-4.124 9.05 9.05 0 012.129-3.147 9.39 9.39 0 013.24-2 12.4 12.4 0 018.194 0 9.4 9.4 0 013.241 2 9.056 9.056 0 012.129 3.147 10.71 10.71 0 01.763 4.124 10.707 10.707 0 01-.763 4.124 9.052 9.052 0 01-2.129 3.147 9.374 9.374 0 01-3.241 2 12.4 12.4 0 01-8.194 0 9.368 9.368 0 01-3.24-2A9.046 9.046 0 01121 27.643a10.7 10.7 0 01-.759-4.125zm4.338 0a6.939 6.939 0 00.415 2.45 5.593 5.593 0 001.192 1.928 5.426 5.426 0 001.861 1.272 6.677 6.677 0 004.847 0 5.425 5.425 0 001.861-1.272 5.617 5.617 0 001.192-1.928 7.4 7.4 0 000-4.887 5.6 5.6 0 00-1.192-1.942 5.446 5.446 0 00-1.861-1.272 6.678 6.678 0 00-4.847 0 5.446 5.446 0 00-1.861 1.272 5.573 5.573 0 00-1.192 1.942 6.976 6.976 0 00-.415 2.437z" transform="translate(-102.593 -13.556)"/><path id="パス_1789" data-name="パス 1789" d="M171.323 14.528h4.177v15.1h7.74v3.856h-11.917z" transform="translate(-128.342 -14.046)"/><path id="パス_1790" data-name="パス 1790" d="M201.724 23.518a10.711 10.711 0 01.763-4.124 9.057 9.057 0 012.129-3.147 9.4 9.4 0 013.24-2 12.4 12.4 0 018.195 0 9.4 9.4 0 013.24 2 9.043 9.043 0 012.129 3.147 10.71 10.71 0 01.763 4.124 10.707 10.707 0 01-.763 4.124 9.038 9.038 0 01-2.129 3.147 9.377 9.377 0 01-3.24 2 12.4 12.4 0 01-8.195 0 9.372 9.372 0 01-3.24-2 9.052 9.052 0 01-2.129-3.147 10.707 10.707 0 01-.763-4.124zm4.338 0a6.939 6.939 0 00.415 2.45 5.6 5.6 0 001.192 1.928 5.425 5.425 0 001.861 1.272 6.679 6.679 0 004.847 0 5.426 5.426 0 001.861-1.272 5.616 5.616 0 001.192-1.928 7.4 7.4 0 000-4.887 5.6 5.6 0 00-1.192-1.942 5.446 5.446 0 00-1.861-1.272 6.679 6.679 0 00-4.847 0 5.446 5.446 0 00-1.861 1.272 5.58 5.58 0 00-1.192 1.942 6.976 6.976 0 00-.415 2.437z" transform="translate(-143.666 -13.556)"/><path id="パス_1791" data-name="パス 1791" d="M254.383 18.224h-5.41v-3.7h15v3.7h-5.41v15.265h-4.178z" transform="translate(-167.482 -14.046)"/><path id="パス_1792" data-name="パス 1792" d="M285.207 23.518a10.7 10.7 0 01.763-4.124 9.05 9.05 0 012.129-3.147 9.385 9.385 0 013.24-2 12.4 12.4 0 018.194 0 9.394 9.394 0 013.24 2 9.043 9.043 0 012.129 3.147 10.7 10.7 0 01.763 4.124 10.7 10.7 0 01-.763 4.124 9.038 9.038 0 01-2.129 3.147 9.372 9.372 0 01-3.24 2 12.4 12.4 0 01-8.194 0 9.363 9.363 0 01-3.24-2 9.045 9.045 0 01-2.129-3.147 10.7 10.7 0 01-.763-4.124zm4.338 0a6.95 6.95 0 00.415 2.45 5.6 5.6 0 001.192 1.928 5.425 5.425 0 001.861 1.272 6.677 6.677 0 004.847 0 5.426 5.426 0 001.861-1.272 5.608 5.608 0 001.192-1.928 7.4 7.4 0 000-4.887 5.588 5.588 0 00-1.192-1.942 5.446 5.446 0 00-1.861-1.272 6.678 6.678 0 00-4.847 0 5.446 5.446 0 00-1.861 1.272 5.581 5.581 0 00-1.192 1.942 6.987 6.987 0 00-.415 2.437z" transform="translate(-185.746 -13.556)"/><path id="パス_1793" data-name="パス 1793" d="M335.964 14.528h7.336a12.944 12.944 0 012.745.281 6.513 6.513 0 012.276.937 4.679 4.679 0 011.554 1.768 5.993 5.993 0 01.575 2.772 5.564 5.564 0 01-1.044 3.415 4.7 4.7 0 01-3.053 1.781l4.821 8.007h-5.007L342.2 25.91h-2.062v7.579h-4.178zm4.178 7.847h2.464q.562 0 1.191-.04a3.73 3.73 0 001.138-.241 1.969 1.969 0 00.844-.629 1.912 1.912 0 00.335-1.205 2 2 0 00-.295-1.152 1.974 1.974 0 00-.749-.656 3.346 3.346 0 00-1.045-.308 8.512 8.512 0 00-1.151-.08h-2.732z" transform="translate(-211.331 -14.046)"/><path id="パス_1794" data-name="パス 1794" d="M374.629 14.528h4.178v18.961h-4.178z" transform="translate(-230.821 -14.046)"/></g></g></g></g></svg>